<svg width="90" height="52" viewBox="0 0 90 52" fill="none" xmlns="http://www.w3.org/2000/svg">
<path d="M59.1652 22.5C58.5652 22.9 57.6652 23.2 56.5652 23.2C54.8652 23.2 53.2652 23 51.6652 22.5C51.2652 22.4 50.9652 22.3 50.7652 22.3C50.4652 22.3 50.3652 22.5 50.3652 22.9V23.9C50.3652 24.2 50.4652 24.4 50.5652 24.6C50.6652 24.7 50.8652 24.9 51.1652 25C52.7652 25.7 54.5652 26 56.5652 26C58.6652 26 60.2652 25.5 61.5652 24.5C62.8652 23.5 63.4652 22.2 63.4652 20.5C63.4652 19.3 63.1652 18.4 62.5652 17.6C61.9652 16.9 60.9652 16.2 59.5652 15.7L56.7652 14.6C55.6652 14.2 54.8652 13.8 54.5652 13.4C54.1652 13 53.9652 12.6 53.9652 11.9C53.9652 10.4 55.0652 9.60003 57.3652 9.60003C58.6652 9.60003 59.9652 9.80003 61.1652 10.2C61.5652 10.3 61.8652 10.4 61.9652 10.4C62.2652 10.4 62.4652 10.2 62.4652 9.80002V8.80002C62.4652 8.50002 62.3652 8.30003 62.2652 8.10003C62.1652 7.90003 61.9652 7.80003 61.6652 7.70003C60.1652 7.20003 58.6652 6.90002 57.1652 6.90002C55.2652 6.90002 53.6652 7.40002 52.4652 8.30002C51.2652 9.20002 50.6652 10.5 50.6652 12C50.6652 14.3 51.9652 16 54.5652 17L57.5652 18.1C58.5652 18.5 59.1652 18.8 59.5652 19.2C59.9652 19.6 60.0652 20 60.0652 20.6C60.0652 21.4 59.7652 22.1 59.1652 22.5Z" fill="white"/>
<path d="M43.4656 8.10003V21.4C41.7656 22.5 40.0656 23.1 38.3656 23.1C37.2656 23.1 36.4656 22.8 35.9656 22.2C35.4656 21.6 35.2656 20.7 35.2656 19.4V8.10003C35.2656 7.60003 35.0656 7.40002 34.5656 7.40002H32.4656C31.9656 7.40002 31.7656 7.60003 31.7656 8.10003V20.5C31.7656 22.2 32.1656 23.6 33.0656 24.5C33.9656 25.4 35.2656 25.9 36.9656 25.9C39.2656 25.9 41.5656 25.1 43.7656 23.5L43.9656 24.7C43.9656 25 44.0656 25.1 44.2656 25.2C44.3656 25.3 44.5656 25.3 44.8656 25.3H46.3656C46.8656 25.3 47.0656 25.1 47.0656 24.6V8.10003C47.0656 7.60003 46.8656 7.40002 46.3656 7.40002H44.2656C43.6656 7.40002 43.4656 7.70003 43.4656 8.10003Z" fill="white"/>
<path d="M24.4656 25.4H26.5656C27.0656 25.4 27.2656 25.2 27.2656 24.7V12.2C27.2656 10.5 26.8656 9.20002 25.9656 8.30002C25.0656 7.40002 23.8656 6.90002 22.1656 6.90002C19.8656 6.90002 17.4656 7.70002 15.1656 9.40002C14.3656 7.70002 12.8656 6.90002 10.6656 6.90002C8.46562 6.90002 6.26562 7.70003 4.06562 9.20003L3.86563 8.10003C3.86563 7.80003 3.76562 7.70003 3.56562 7.60003C3.46562 7.50003 3.26562 7.50002 3.06562 7.50002H1.46563C0.965625 7.50002 0.765625 7.70003 0.765625 8.20003V24.8C0.765625 25.3 0.965625 25.5 1.46563 25.5H3.56562C4.06562 25.5 4.26563 25.3 4.26563 24.8V11.3C5.96563 10.3 7.66562 9.70003 9.46562 9.70003C10.4656 9.70003 11.1656 10 11.5656 10.6C11.9656 11.2 12.2656 12 12.2656 13.2V24.7C12.2656 25.2 12.4656 25.4 12.9656 25.4H15.0656C15.5656 25.4 15.7656 25.2 15.7656 24.7V12.4V11.8C15.7656 11.6 15.7656 11.4 15.7656 11.3C17.5656 10.2 19.2656 9.70003 20.9656 9.70003C21.9656 9.70003 22.6656 10 23.0656 10.6C23.4656 11.2 23.7656 12 23.7656 13.2V24.7C23.7656 25.2 23.9656 25.4 24.4656 25.4Z" fill="white"/>
<path d="M78.9658 38.7C68.0658 43.3 56.1658 45.5999 45.3658 45.5999C29.3658 45.5999 13.8658 41.2 1.36577 33.9C1.16577 33.8 0.965771 33.7 0.765771 33.7C0.0657711 33.7 -0.334229 34.5 0.365771 35.2C11.9658 45.7 27.3658 52 44.3658 52C56.5658 52 70.6658 48.2 80.3658 41C82.0658 39.8 80.6658 38 78.9658 38.7Z" fill="white"/>
<path d="M78.666 11.4C79.566 10.4 80.966 9.9 82.966 9.9C83.966 9.9 84.966 10 85.866 10.3C86.166 10.4 86.266 10.4 86.466 10.4C86.766 10.4 86.966 10.2 86.966 9.7V8.7C86.966 8.4 86.866 8.1 86.766 8C86.666 7.9 86.466 7.7 86.266 7.6C84.966 7.3 83.666 7 82.466 7C79.666 7 77.566 7.8 75.966 9.5C74.466 11.1 73.666 13.5 73.666 16.5C73.666 19.5 74.366 21.8 75.866 23.4C77.366 25 79.466 25.8 82.266 25.8C83.766 25.8 85.166 25.6 86.266 25.1C86.566 25 86.766 24.9 86.866 24.7C86.966 24.6 86.966 24.3 86.966 24V23C86.966 22.5 86.766 22.3 86.466 22.3C86.366 22.3 86.166 22.3 85.966 22.4C84.866 22.7 83.766 22.9 82.766 22.9C80.866 22.9 79.466 22.4 78.566 21.4C77.666 20.4 77.266 18.8 77.266 16.7V16.2C77.366 14 77.766 12.4 78.666 11.4Z" fill="white"/>
<path d="M83.1665 48.1C88.3665 43.7 89.7665 34.6 88.6665 33.2C88.1665 32.6 85.7665 32 82.7665 32C79.5665 32 75.7665 32.7 72.8665 34.7C71.9665 35.3 72.1665 36.1 73.0665 36C76.1665 35.6 83.1665 34.8 84.4665 36.4C85.6665 38 83.0665 44.6 81.8665 47.5C81.5665 48.4 82.2665 48.7 83.1665 48.1Z" fill="white"/>
<path d="M69.2648 7.40002H67.1648C66.6648 7.40002 66.4648 7.60003 66.4648 8.10003V24.7C66.4648 25.2 66.6648 25.4 67.1648 25.4H69.2648C69.7648 25.4 69.9648 25.2 69.9648 24.7V8.10003C69.9648 7.70003 69.7648 7.40002 69.2648 7.40002Z" fill="white"/>
<path d="M69.8648 0.6C69.4648 0.2 68.8648 0 68.1648 0C67.4648 0 66.9648 0.2 66.5648 0.6C66.1648 1 65.9648 1.5 65.9648 2.1C65.9648 2.7 66.1648 3.3 66.5648 3.6C66.9648 4 67.4648 4.2 68.1648 4.2C68.8648 4.2 69.3648 4 69.7648 3.6C70.1648 3.2 70.3648 2.7 70.3648 2.1C70.3648 1.5 70.2648 0.9 69.8648 0.6Z" fill="white"/>
</svg>
