<svg width="47" height="47" viewBox="0 0 47 47" fill="none" xmlns="http://www.w3.org/2000/svg">
<path fill-rule="evenodd" clip-rule="evenodd" d="M39.4191 7.17057C39.854 4.6502 40.492 3.06532 41.1988 3.06229H41.2004C42.5183 3.06683 43.5867 8.5632 43.5867 15.3493C43.5867 22.1353 42.5168 27.6363 41.1973 27.6363C40.6564 27.6363 40.1573 26.7023 39.7554 25.1371C39.1203 30.8666 37.8023 34.8054 36.2767 34.8054C35.0962 34.8054 34.0367 32.4394 33.3255 28.708C32.8398 35.8044 31.6175 40.8391 30.1889 40.8391C29.2923 40.8391 28.4749 38.844 27.8698 35.5956C27.1421 42.3014 25.461 47 23.5004 47C21.5399 47 19.856 42.3028 19.1312 35.5956C18.5305 38.844 17.7131 40.8391 16.812 40.8391C15.3835 40.8391 14.1641 35.8044 13.6755 28.708C12.9643 32.4394 11.9078 34.8054 10.7243 34.8054C9.20012 34.8054 7.88069 30.8681 7.24562 25.1371C6.84665 26.7069 6.34457 27.6363 5.80363 27.6363C4.48418 27.6363 3.41427 22.1353 3.41427 15.3493C3.41427 8.5632 4.48418 3.06229 5.80363 3.06229C6.51193 3.06229 7.1455 4.65171 7.58483 7.17057C8.28864 2.82463 9.43179 0 10.7243 0C12.259 0 13.5889 3.99476 14.218 9.79539C14.8336 5.57357 15.7675 2.88216 16.8136 2.88216C18.2794 2.88216 19.5257 8.17569 19.9875 15.5597C20.8556 11.7738 22.1123 9.39879 23.5035 9.39879C24.8947 9.39879 26.1514 11.7754 27.018 15.5597C27.4813 8.17569 28.726 2.88216 30.1919 2.88216C31.2364 2.88216 32.1689 5.57357 32.7875 9.79539C33.4151 3.99476 34.745 0 36.2796 0C37.5677 0 38.7153 2.82615 39.4191 7.17057ZM0 14.1408C0 11.1073 0.606685 8.64743 1.35532 8.64743C2.10396 8.64743 2.71064 11.1073 2.71064 14.1408C2.71064 17.1743 2.10396 19.6342 1.35532 19.6342C0.606685 19.6342 0 17.1743 0 14.1408ZM44.2894 14.1408C44.2894 11.1073 44.896 8.64743 45.6446 8.64743C46.3933 8.64743 47 11.1073 47 14.1408C47 17.1743 46.3933 19.6342 45.6446 19.6342C44.896 19.6342 44.2894 17.1743 44.2894 14.1408Z" fill="white"/>
</svg>
